<svg xmlns="http://www.w3.org/2000/svg" xmlns:xlink="http://www.w3.org/1999/xlink" width="500" zoomAndPan="magnify" viewBox="0 0 375 374.999991" height="500" preserveAspectRatio="xMidYMid meet" version="1.0"><defs><g/></defs><g fill="#ffffff" fill-opacity="1"><g transform="translate(22.439403, 165.456851)"><g><path d="M 11.796875 0 L 29.265625 0 L 29.265625 -82.40625 L 38.984375 -82.40625 L 38.984375 -97.109375 L 2.078125 -97.109375 L 2.078125 -82.40625 L 11.796875 -82.40625 Z M 11.796875 0 "/></g></g></g><g fill="#ffffff" fill-opacity="1"><g transform="translate(59.198486, 165.456851)"><g><path d="M 4.15625 0 L 40.921875 0 L 40.921875 -14.703125 L 21.640625 -14.703125 L 21.640625 -37.59375 L 35.375 -37.59375 L 35.375 -52.296875 L 21.640625 -52.296875 L 21.640625 -82.40625 L 40.921875 -82.40625 L 40.921875 -97.109375 L 4.15625 -97.109375 Z M 4.15625 0 "/></g></g></g><g fill="#ffffff" fill-opacity="1"><g transform="translate(97.899576, 165.456851)"><g><path d="M 4.15625 0 L 21.640625 0 L 21.640625 -53.6875 L 28.4375 0 L 37.734375 0 L 44.671875 -53.6875 L 44.671875 0 L 62.140625 0 L 62.140625 -97.109375 L 39.953125 -97.109375 L 33.15625 -53.828125 L 26.359375 -97.109375 L 4.15625 -97.109375 Z M 4.15625 0 "/></g></g></g><g fill="#ffffff" fill-opacity="1"><g transform="translate(159.904771, 165.456851)"><g><path d="M 4.15625 0 L 21.640625 0 L 21.640625 -22.890625 L 31.078125 -22.890625 C 38.84375 -22.890625 44.9375 -29 44.9375 -36.765625 L 44.9375 -83.234375 C 44.9375 -91 38.84375 -97.109375 31.078125 -97.109375 L 4.15625 -97.109375 Z M 21.640625 -37.59375 L 21.640625 -82.53125 L 24.546875 -82.53125 C 26.21875 -82.53125 27.46875 -81.296875 27.46875 -79.625 L 27.46875 -40.5 C 27.46875 -38.84375 26.21875 -37.59375 24.546875 -37.59375 Z M 21.640625 -37.59375 "/></g></g></g><g fill="#ffffff" fill-opacity="1"><g transform="translate(204.709314, 165.456851)"><g><path d="M 18.03125 0 L 31.078125 0 C 38.84375 0 44.9375 -6.109375 44.9375 -13.875 L 44.9375 -83.234375 C 44.9375 -91 38.84375 -97.109375 31.078125 -97.109375 L 18.03125 -97.109375 C 10.265625 -97.109375 4.15625 -91 4.15625 -83.234375 L 4.15625 -13.875 C 4.15625 -6.109375 10.265625 0 18.03125 0 Z M 24.546875 -14.703125 C 22.890625 -14.703125 21.640625 -15.953125 21.640625 -17.625 L 21.640625 -79.625 C 21.640625 -81.296875 22.890625 -82.53125 24.546875 -82.53125 C 26.21875 -82.53125 27.46875 -81.296875 27.46875 -79.625 L 27.46875 -17.625 C 27.46875 -15.953125 26.21875 -14.703125 24.546875 -14.703125 Z M 24.546875 -14.703125 "/></g></g></g><g fill="#d61a46" fill-opacity="1"><g transform="translate(22.439403, 267.456844)"><g><path d="M 11.796875 0 L 29.265625 0 L 29.265625 -82.40625 L 38.984375 -82.40625 L 38.984375 -97.109375 L 2.078125 -97.109375 L 2.078125 -82.40625 L 11.796875 -82.40625 Z M 11.796875 0 "/></g></g></g><g fill="#d61a46" fill-opacity="1"><g transform="translate(59.198486, 267.456844)"><g><path d="M 18.03125 0 L 31.078125 0 C 38.84375 0 44.9375 -6.109375 44.9375 -13.875 L 44.9375 -83.234375 C 44.9375 -91 38.84375 -97.109375 31.078125 -97.109375 L 18.03125 -97.109375 C 10.265625 -97.109375 4.15625 -91 4.15625 -83.234375 L 4.15625 -13.875 C 4.15625 -6.109375 10.265625 0 18.03125 0 Z M 24.546875 -14.703125 C 22.890625 -14.703125 21.640625 -15.953125 21.640625 -17.625 L 21.640625 -79.625 C 21.640625 -81.296875 22.890625 -82.53125 24.546875 -82.53125 C 26.21875 -82.53125 27.46875 -81.296875 27.46875 -79.625 L 27.46875 -17.625 C 27.46875 -15.953125 26.21875 -14.703125 24.546875 -14.703125 Z M 24.546875 -14.703125 "/></g></g></g><g fill="#d61a46" fill-opacity="1"><g transform="translate(104.00303, 267.456844)"><g><path d="M 18.03125 0 L 20.8125 0 C 23.3125 -0.5625 25.53125 -1.796875 27.46875 -3.75 L 27.46875 0 L 44.9375 0 L 44.9375 -31.21875 L 23.859375 -31.21875 L 23.859375 -22.0625 L 27.46875 -20.53125 L 27.46875 -17.625 C 27.46875 -15.953125 26.21875 -14.703125 24.546875 -14.703125 C 22.890625 -14.703125 21.640625 -15.953125 21.640625 -17.625 L 21.640625 -79.625 C 21.640625 -81.296875 22.890625 -82.53125 24.546875 -82.53125 C 26.21875 -82.53125 27.46875 -81.296875 27.46875 -79.625 L 27.46875 -37.59375 L 44.9375 -37.59375 L 44.9375 -83.234375 C 44.9375 -91 38.84375 -97.109375 31.078125 -97.109375 L 18.03125 -97.109375 C 10.265625 -97.109375 4.15625 -91 4.15625 -83.234375 L 4.15625 -13.875 C 4.15625 -6.109375 10.265625 0 18.03125 0 Z M 18.03125 0 "/></g></g></g><g fill="#d61a46" fill-opacity="1"><g transform="translate(148.807573, 267.456844)"><g><path d="M 4.15625 0 L 40.921875 0 L 40.921875 -14.703125 L 21.640625 -14.703125 L 21.640625 -37.59375 L 35.375 -37.59375 L 35.375 -52.296875 L 21.640625 -52.296875 L 21.640625 -82.40625 L 40.921875 -82.40625 L 40.921875 -97.109375 L 4.15625 -97.109375 Z M 4.15625 0 "/></g></g></g><g fill="#d61a46" fill-opacity="1"><g transform="translate(187.508662, 267.456844)"><g><path d="M 11.796875 0 L 29.265625 0 L 29.265625 -82.40625 L 38.984375 -82.40625 L 38.984375 -97.109375 L 2.078125 -97.109375 L 2.078125 -82.40625 L 11.796875 -82.40625 Z M 11.796875 0 "/></g></g></g><g fill="#d61a46" fill-opacity="1"><g transform="translate(224.267758, 267.456844)"><g><path d="M 4.15625 0 L 21.640625 0 L 21.640625 -22.890625 L 27.46875 -22.890625 L 27.46875 0 L 44.9375 0 L 44.9375 -97.109375 L 27.46875 -97.109375 L 27.46875 -37.59375 L 21.640625 -37.59375 L 21.640625 -97.109375 L 4.15625 -97.109375 Z M 4.15625 0 "/></g></g></g><g fill="#d61a46" fill-opacity="1"><g transform="translate(269.07229, 267.456844)"><g><path d="M 4.15625 0 L 40.921875 0 L 40.921875 -14.703125 L 21.640625 -14.703125 L 21.640625 -37.59375 L 35.375 -37.59375 L 35.375 -52.296875 L 21.640625 -52.296875 L 21.640625 -82.40625 L 40.921875 -82.40625 L 40.921875 -97.109375 L 4.15625 -97.109375 Z M 4.15625 0 "/></g></g></g><g fill="#d61a46" fill-opacity="1"><g transform="translate(307.773368, 267.456844)"><g><path d="M 4.15625 0 L 21.640625 0 L 21.640625 -22.890625 L 27.46875 -22.890625 L 27.46875 0 L 44.9375 0 L 44.9375 -20.109375 C 44.53125 -24.96875 41.609375 -28.859375 37.3125 -30.9375 C 41.609375 -32.734375 44.53125 -36.90625 44.9375 -41.75 L 44.9375 -83.234375 C 44.9375 -91 38.84375 -97.109375 31.078125 -97.109375 L 4.15625 -97.109375 Z M 21.640625 -37.59375 L 21.640625 -82.53125 L 24.546875 -82.53125 C 26.21875 -82.53125 27.46875 -81.296875 27.46875 -79.625 L 27.46875 -40.5 C 27.46875 -38.84375 26.21875 -37.59375 24.546875 -37.59375 Z M 21.640625 -37.59375 "/></g></g></g></svg>