<svg xmlns="http://www.w3.org/2000/svg" xmlns:xlink="http://www.w3.org/1999/xlink" width="500" zoomAndPan="magnify" viewBox="0 0 375 374.999991" height="500" preserveAspectRatio="xMidYMid meet" version="1.0"><defs><clipPath id="c10b72507f"><path d="M 33.496094 68.921875 L 337.246094 68.921875 L 337.246094 329.921875 L 33.496094 329.921875 Z M 33.496094 68.921875 " clip-rule="nonzero"/></clipPath></defs><path fill="#d61a46" d="M 308.757812 70.238281 L 152.8125 70.238281 L 157.554688 134.46875 L 163.429688 214.386719 C 148.9375 196.011719 126.550781 184.03125 102.226562 184.03125 C 62.21875 184.03125 32.15625 216.460938 35.105469 256.476562 C 38.058594 296.488281 72.835938 328.914062 112.84375 328.914062 C 152.851562 328.914062 182.910156 296.484375 179.964844 256.476562 L 171.011719 134.46875 L 313.472656 134.46875 L 319.347656 214.386719 C 304.859375 196.011719 282.46875 184.03125 258.148438 184.03125 C 218.136719 184.03125 188.078125 216.460938 191.023438 256.476562 C 193.96875 296.488281 228.78125 328.914062 268.792969 328.914062 C 308.800781 328.914062 338.859375 296.484375 335.914062 256.476562 L 326.960938 134.46875 L 322.21875 70.238281 Z M 308.757812 70.238281 " fill-opacity="1" fill-rule="nonzero"/><g clip-path="url(#c10b72507f)"><path fill="#061f40" d="M 268.792969 330.234375 C 228.171875 330.234375 192.695312 297.183594 189.710938 256.566406 C 188.257812 236.808594 194.605469 218.238281 207.578125 204.277344 C 220.546875 190.316406 238.460938 182.71875 258.148438 182.71875 C 280.542969 182.71875 302.523438 192.992188 317.730469 210.386719 L 312.253906 135.789062 L 172.417969 135.789062 L 181.277344 256.375 C 182.726562 276.132812 176.382812 294.703125 163.40625 308.664062 C 150.433594 322.625 132.523438 330.234375 112.84375 330.234375 C 72.222656 330.234375 36.746094 297.1875 33.765625 256.570312 C 32.308594 236.8125 38.65625 218.242188 51.628906 204.28125 C 64.597656 190.320312 82.511719 182.71875 102.195312 182.71875 C 124.597656 182.71875 146.574219 192.992188 161.78125 210.386719 L 151.492188 70.332031 C 151.476562 70.152344 151.5 69.972656 151.5625 69.800781 C 151.621094 69.628906 151.714844 69.476562 151.839844 69.34375 C 151.964844 69.207031 152.109375 69.105469 152.277344 69.03125 C 152.445312 68.957031 152.621094 68.921875 152.800781 68.921875 L 322.226562 68.921875 C 322.394531 68.921875 322.554688 68.953125 322.710938 69.011719 C 322.867188 69.074219 323.003906 69.160156 323.125 69.273438 C 323.25 69.386719 323.34375 69.519531 323.417969 69.667969 C 323.488281 69.820312 323.53125 69.976562 323.546875 70.144531 L 337.242188 256.375 C 338.695312 276.132812 332.347656 294.703125 319.378906 308.664062 C 306.40625 322.625 288.480469 330.234375 268.792969 330.234375 Z M 258.148438 185.351562 C 239.183594 185.351562 221.929688 192.726562 209.511719 206.078125 C 197.09375 219.429688 190.941406 237.363281 192.339844 256.378906 C 195.222656 295.652344 229.542969 327.597656 268.792969 327.597656 C 287.757812 327.597656 305.011719 320.222656 317.429688 306.867188 C 329.847656 293.511719 336 275.582031 334.597656 256.566406 L 321.003906 71.554688 L 154.203125 71.554688 L 164.691406 214.292969 C 164.714844 214.582031 164.648438 214.847656 164.492188 215.09375 C 164.339844 215.339844 164.125 215.511719 163.855469 215.617188 C 163.585938 215.722656 163.3125 215.738281 163.03125 215.660156 C 162.75 215.582031 162.523438 215.429688 162.34375 215.203125 C 147.59375 196.503906 125.113281 185.347656 102.179688 185.347656 C 83.253906 185.351562 65.980469 192.726562 53.578125 206.074219 C 41.175781 219.417969 34.992188 237.355469 36.386719 256.375 C 39.273438 295.652344 73.597656 327.597656 112.84375 327.597656 C 131.808594 327.597656 149.058594 320.222656 161.480469 306.867188 C 173.902344 293.511719 180.046875 275.582031 178.648438 256.566406 L 169.691406 134.558594 C 169.679688 134.378906 169.703125 134.199219 169.765625 134.027344 C 169.824219 133.855469 169.917969 133.703125 170.042969 133.570312 C 170.167969 133.433594 170.3125 133.332031 170.480469 133.257812 C 170.648438 133.183594 170.820312 133.148438 171.003906 133.148438 L 313.472656 133.148438 C 313.636719 133.148438 313.800781 133.179688 313.953125 133.238281 C 314.109375 133.300781 314.246094 133.386719 314.371094 133.5 C 314.492188 133.613281 314.589844 133.746094 314.660156 133.894531 C 314.734375 134.046875 314.777344 134.203125 314.789062 134.371094 L 320.683594 214.292969 C 320.703125 214.578125 320.636719 214.84375 320.484375 215.089844 C 320.328125 215.332031 320.117188 215.507812 319.847656 215.609375 C 319.578125 215.714844 319.304688 215.730469 319.027344 215.65625 C 318.75 215.578125 318.519531 215.429688 318.339844 215.203125 C 303.574219 196.503906 281.082031 185.351562 258.148438 185.351562 Z M 258.148438 185.351562 " fill-opacity="1" fill-rule="nonzero"/></g><path fill="#d61a46" d="M 163.398438 214.386719 L 164.640625 231.335938 " fill-opacity="1" fill-rule="nonzero"/><path fill="#061f40" d="M 164.640625 232.652344 C 164.472656 232.652344 164.3125 232.621094 164.160156 232.5625 C 164.003906 232.5 163.863281 232.414062 163.742188 232.300781 C 163.621094 232.1875 163.523438 232.054688 163.453125 231.902344 C 163.382812 231.753906 163.339844 231.597656 163.328125 231.429688 L 162.105469 214.480469 C 162.09375 214.308594 162.117188 214.136719 162.171875 213.96875 C 162.226562 213.804688 162.3125 213.65625 162.425781 213.523438 C 162.539062 213.390625 162.675781 213.285156 162.832031 213.207031 C 162.988281 213.128906 163.15625 213.082031 163.328125 213.070312 C 163.503906 213.058594 163.671875 213.078125 163.839844 213.136719 C 164.003906 213.191406 164.15625 213.273438 164.289062 213.390625 C 164.417969 213.503906 164.523438 213.640625 164.605469 213.796875 C 164.683594 213.953125 164.726562 214.117188 164.742188 214.292969 L 165.984375 231.238281 C 165.996094 231.414062 165.976562 231.582031 165.921875 231.75 C 165.867188 231.914062 165.78125 232.0625 165.667969 232.195312 C 165.554688 232.328125 165.417969 232.433594 165.261719 232.511719 C 165.105469 232.589844 164.941406 232.632812 164.765625 232.648438 Z M 164.640625 232.652344 " fill-opacity="1" fill-rule="nonzero"/><path fill="#d61a46" d="M 319.347656 214.386719 L 320.589844 231.335938 " fill-opacity="1" fill-rule="nonzero"/><path fill="#061f40" d="M 320.589844 232.652344 C 320.421875 232.652344 320.261719 232.621094 320.109375 232.558594 C 319.953125 232.5 319.816406 232.410156 319.695312 232.296875 C 319.570312 232.183594 319.476562 232.054688 319.402344 231.902344 C 319.332031 231.753906 319.289062 231.59375 319.277344 231.429688 L 318.050781 214.480469 C 318.039062 214.304688 318.058594 214.136719 318.113281 213.96875 C 318.167969 213.804688 318.253906 213.65625 318.367188 213.523438 C 318.484375 213.390625 318.621094 213.285156 318.777344 213.207031 C 318.933594 213.128906 319.097656 213.082031 319.273438 213.070312 C 319.445312 213.058594 319.617188 213.078125 319.785156 213.132812 C 319.949219 213.1875 320.097656 213.273438 320.230469 213.386719 C 320.363281 213.503906 320.46875 213.636719 320.546875 213.792969 C 320.625 213.953125 320.671875 214.117188 320.683594 214.292969 L 321.933594 231.238281 C 321.945312 231.414062 321.925781 231.582031 321.867188 231.75 C 321.8125 231.914062 321.730469 232.0625 321.617188 232.195312 C 321.5 232.328125 321.367188 232.433594 321.210938 232.511719 C 321.054688 232.589844 320.890625 232.632812 320.714844 232.648438 Z M 320.589844 232.652344 " fill-opacity="1" fill-rule="nonzero"/><path fill="#ffffff" d="M 130.039062 238.933594 C 130.039062 239.882812 130.003906 240.832031 129.9375 241.777344 C 129.867188 242.722656 129.769531 243.664062 129.632812 244.597656 C 129.5 245.527344 129.332031 246.449219 129.132812 247.359375 C 128.929688 248.269531 128.699219 249.164062 128.433594 250.042969 C 128.171875 250.921875 127.875 251.78125 127.550781 252.617188 C 127.226562 253.457031 126.871094 254.273438 126.488281 255.0625 C 126.105469 255.851562 125.695312 256.617188 125.257812 257.351562 C 124.820312 258.085938 124.355469 258.789062 123.867188 259.460938 C 123.382812 260.132812 122.871094 260.773438 122.335938 261.375 C 121.804688 261.980469 121.25 262.542969 120.675781 263.074219 C 120.101562 263.601562 119.511719 264.089844 118.902344 264.539062 C 118.296875 264.984375 117.671875 265.390625 117.035156 265.753906 C 116.398438 266.121094 115.75 266.441406 115.089844 266.714844 C 114.429688 266.992188 113.761719 267.222656 113.085938 267.40625 C 112.40625 267.59375 111.726562 267.734375 111.039062 267.824219 C 110.351562 267.917969 109.664062 267.964844 108.976562 267.964844 C 108.285156 267.964844 107.597656 267.917969 106.910156 267.824219 C 106.222656 267.734375 105.542969 267.59375 104.867188 267.40625 C 104.1875 267.222656 103.519531 266.992188 102.859375 266.714844 C 102.199219 266.441406 101.550781 266.121094 100.914062 265.753906 C 100.277344 265.390625 99.65625 264.984375 99.046875 264.539062 C 98.4375 264.089844 97.847656 263.601562 97.273438 263.074219 C 96.699219 262.542969 96.144531 261.980469 95.613281 261.375 C 95.078125 260.773438 94.570312 260.132812 94.082031 259.460938 C 93.59375 258.789062 93.128906 258.085938 92.691406 257.351562 C 92.253906 256.617188 91.84375 255.851562 91.460938 255.0625 C 91.078125 254.273438 90.722656 253.457031 90.398438 252.617188 C 90.074219 251.78125 89.78125 250.921875 89.515625 250.042969 C 89.25 249.164062 89.019531 248.269531 88.820312 247.359375 C 88.617188 246.449219 88.453125 245.527344 88.316406 244.597656 C 88.183594 243.664062 88.082031 242.722656 88.011719 241.777344 C 87.945312 240.832031 87.914062 239.882812 87.914062 238.933594 C 87.914062 237.980469 87.945312 237.03125 88.011719 236.085938 C 88.082031 235.140625 88.183594 234.199219 88.316406 233.265625 C 88.453125 232.335938 88.617188 231.414062 88.820312 230.503906 C 89.019531 229.59375 89.25 228.699219 89.515625 227.820312 C 89.78125 226.941406 90.074219 226.082031 90.398438 225.246094 C 90.722656 224.40625 91.078125 223.59375 91.460938 222.800781 C 91.84375 222.011719 92.253906 221.246094 92.691406 220.511719 C 93.128906 219.777344 93.59375 219.074219 94.082031 218.402344 C 94.570312 217.730469 95.078125 217.089844 95.613281 216.488281 C 96.144531 215.886719 96.699219 215.320312 97.273438 214.789062 C 97.847656 214.261719 98.4375 213.773438 99.046875 213.324219 C 99.65625 212.878906 100.277344 212.472656 100.914062 212.109375 C 101.550781 211.742188 102.199219 211.425781 102.859375 211.148438 C 103.519531 210.871094 104.1875 210.640625 104.867188 210.457031 C 105.542969 210.269531 106.222656 210.128906 106.910156 210.039062 C 107.597656 209.945312 108.285156 209.898438 108.976562 209.898438 C 109.664062 209.898438 110.351562 209.945312 111.039062 210.039062 C 111.726562 210.128906 112.40625 210.269531 113.085938 210.457031 C 113.761719 210.640625 114.429688 210.871094 115.089844 211.148438 C 115.75 211.425781 116.398438 211.742188 117.035156 212.109375 C 117.671875 212.472656 118.296875 212.878906 118.902344 213.324219 C 119.511719 213.773438 120.101562 214.261719 120.675781 214.789062 C 121.25 215.320312 121.804688 215.886719 122.335938 216.488281 C 122.871094 217.089844 123.382812 217.730469 123.867188 218.402344 C 124.355469 219.074219 124.820312 219.777344 125.257812 220.511719 C 125.695312 221.246094 126.105469 222.011719 126.488281 222.800781 C 126.871094 223.59375 127.226562 224.40625 127.550781 225.246094 C 127.875 226.082031 128.171875 226.941406 128.433594 227.820312 C 128.699219 228.699219 128.929688 229.59375 129.132812 230.503906 C 129.332031 231.414062 129.5 232.335938 129.632812 233.265625 C 129.769531 234.199219 129.867188 235.140625 129.9375 236.085938 C 130.003906 237.03125 130.039062 237.980469 130.039062 238.933594 Z M 130.039062 238.933594 " fill-opacity="1" fill-rule="nonzero"/><path fill="#061f40" d="M 108.976562 269.28125 C 96.632812 269.28125 86.59375 255.667969 86.59375 238.933594 C 86.59375 222.195312 96.605469 208.585938 108.976562 208.585938 C 121.34375 208.585938 131.355469 222.199219 131.355469 238.933594 C 131.355469 255.664062 121.3125 269.28125 108.976562 269.28125 Z M 108.976562 211.21875 C 98.085938 211.21875 89.230469 223.652344 89.230469 238.933594 C 89.230469 254.210938 98.085938 266.648438 108.976562 266.648438 C 119.863281 266.648438 128.722656 254.214844 128.722656 238.933594 C 128.722656 223.648438 119.859375 211.21875 108.976562 211.21875 Z M 108.976562 211.21875 " fill-opacity="1" fill-rule="nonzero"/><path fill="#061f40" d="M 124.101562 218.738281 C 118.304688 221.960938 114.128906 228 113.035156 235.160156 L 123.121094 238.933594 L 113.015625 242.710938 C 114.121094 249.867188 118.320312 255.878906 124.078125 259.128906 C 127.765625 253.910156 130.011719 246.785156 130.011719 238.933594 C 130.011719 231.078125 127.765625 223.960938 124.101562 218.738281 Z M 124.101562 218.738281 " fill-opacity="1" fill-rule="nonzero"/><path fill="#d61a46" d="M 108.976562 258.695312 C 103.394531 258.707031 97.878906 258.105469 92.433594 256.890625 C 96.289062 263.636719 102.261719 267.957031 108.976562 267.957031 C 115.6875 267.957031 121.660156 263.625 125.519531 256.890625 C 120.070312 258.105469 114.554688 258.707031 108.976562 258.695312 Z M 108.976562 258.695312 " fill-opacity="1" fill-rule="nonzero"/><path fill="#061f40" d="M 108.976562 269.28125 C 102 269.28125 95.554688 265.003906 91.289062 257.546875 L 89.804688 254.949219 L 92.722656 255.605469 C 98.074219 256.785156 103.492188 257.375 108.976562 257.375 C 114.457031 257.375 119.875 256.785156 125.226562 255.605469 L 128.148438 254.949219 L 126.660156 257.527344 C 122.394531 265.003906 115.945312 269.28125 108.976562 269.28125 Z M 95.234375 258.804688 C 98.921875 263.824219 103.796875 266.648438 108.976562 266.648438 C 114.152344 266.648438 119.039062 263.824219 122.714844 258.804688 C 113.554688 260.425781 104.394531 260.425781 95.234375 258.804688 Z M 95.234375 258.804688 " fill-opacity="1" fill-rule="nonzero"/><path fill="#d61a46" d="M 93.992188 268.871094 C 93.992188 268.871094 85.21875 276.027344 79.667969 276.027344 C 72.570312 276.027344 70.679688 265.863281 61.753906 265.863281 C 55.773438 265.863281 51.160156 271.480469 51.160156 281.53125 C 51.160156 291.582031 55.773438 297.195312 61.753906 297.195312 C 70.710938 297.195312 72.582031 287.03125 79.667969 287.03125 C 85.21875 287.03125 93.992188 294.1875 93.992188 294.1875 " fill-opacity="1" fill-rule="nonzero"/><path fill="#061f40" d="M 61.746094 298.511719 C 53.515625 298.511719 49.832031 289.980469 49.832031 281.53125 C 49.832031 273.082031 53.519531 264.546875 61.746094 264.546875 C 67.011719 264.546875 70.074219 267.707031 72.765625 270.46875 C 74.972656 272.746094 76.878906 274.710938 79.667969 274.710938 C 83.828125 274.710938 90.816406 269.757812 93.160156 267.859375 C 93.296875 267.75 93.445312 267.671875 93.613281 267.621094 C 93.78125 267.570312 93.953125 267.554688 94.125 267.574219 C 94.296875 267.589844 94.460938 267.640625 94.617188 267.726562 C 94.769531 267.808594 94.902344 267.917969 95.011719 268.050781 C 95.121094 268.1875 95.203125 268.339844 95.25 268.507812 C 95.300781 268.671875 95.316406 268.84375 95.300781 269.015625 C 95.28125 269.191406 95.234375 269.355469 95.152344 269.507812 C 95.066406 269.660156 94.960938 269.792969 94.824219 269.90625 C 94.449219 270.203125 85.621094 277.355469 79.667969 277.355469 C 75.761719 277.355469 73.277344 274.792969 70.875 272.3125 C 68.324219 269.679688 65.910156 267.191406 61.746094 267.191406 C 56.105469 267.191406 52.464844 272.824219 52.464844 281.542969 C 52.464844 290.261719 56.105469 295.886719 61.746094 295.886719 C 65.910156 295.886719 68.324219 293.402344 70.875 290.765625 C 73.277344 288.285156 75.761719 285.726562 79.667969 285.726562 C 85.621094 285.726562 94.449219 292.871094 94.824219 293.175781 C 94.960938 293.285156 95.070312 293.417969 95.152344 293.570312 C 95.234375 293.726562 95.285156 293.890625 95.304688 294.0625 C 95.320312 294.238281 95.304688 294.40625 95.253906 294.574219 C 95.203125 294.742188 95.125 294.894531 95.015625 295.03125 C 94.902344 295.164062 94.769531 295.273438 94.617188 295.355469 C 94.464844 295.441406 94.300781 295.492188 94.125 295.507812 C 93.953125 295.527344 93.78125 295.511719 93.613281 295.460938 C 93.445312 295.410156 93.296875 295.328125 93.160156 295.21875 C 90.816406 293.3125 83.828125 288.371094 79.667969 288.371094 C 76.878906 288.371094 74.972656 290.335938 72.765625 292.609375 C 70.074219 295.367188 67.027344 298.511719 61.746094 298.511719 Z M 61.746094 298.511719 " fill-opacity="1" fill-rule="nonzero"/><path fill="#ffffff" d="M 103.039062 238.933594 C 103.039062 239.882812 103.003906 240.832031 102.9375 241.777344 C 102.867188 242.722656 102.765625 243.664062 102.632812 244.597656 C 102.5 245.527344 102.332031 246.449219 102.128906 247.359375 C 101.929688 248.269531 101.699219 249.164062 101.433594 250.042969 C 101.171875 250.921875 100.875 251.78125 100.550781 252.617188 C 100.226562 253.457031 99.871094 254.273438 99.488281 255.0625 C 99.105469 255.851562 98.695312 256.617188 98.257812 257.351562 C 97.820312 258.085938 97.355469 258.789062 96.867188 259.460938 C 96.378906 260.132812 95.871094 260.773438 95.335938 261.375 C 94.804688 261.980469 94.25 262.542969 93.675781 263.074219 C 93.101562 263.601562 92.511719 264.089844 91.902344 264.539062 C 91.296875 264.984375 90.671875 265.390625 90.035156 265.753906 C 89.398438 266.121094 88.75 266.441406 88.089844 266.714844 C 87.429688 266.992188 86.761719 267.222656 86.082031 267.40625 C 85.40625 267.59375 84.726562 267.734375 84.039062 267.824219 C 83.351562 267.917969 82.664062 267.964844 81.976562 267.964844 C 81.285156 267.964844 80.597656 267.917969 79.910156 267.824219 C 79.222656 267.734375 78.542969 267.59375 77.867188 267.40625 C 77.1875 267.222656 76.519531 266.992188 75.859375 266.714844 C 75.199219 266.441406 74.550781 266.121094 73.914062 265.753906 C 73.277344 265.390625 72.652344 264.984375 72.046875 264.539062 C 71.4375 264.089844 70.847656 263.601562 70.273438 263.074219 C 69.699219 262.542969 69.144531 261.980469 68.613281 261.375 C 68.078125 260.773438 67.570312 260.132812 67.082031 259.460938 C 66.59375 258.789062 66.128906 258.085938 65.691406 257.351562 C 65.253906 256.617188 64.84375 255.851562 64.460938 255.0625 C 64.078125 254.273438 63.722656 253.457031 63.398438 252.617188 C 63.074219 251.78125 62.777344 250.921875 62.515625 250.042969 C 62.25 249.164062 62.019531 248.269531 61.820312 247.359375 C 61.617188 246.449219 61.449219 245.527344 61.316406 244.597656 C 61.183594 243.664062 61.082031 242.722656 61.011719 241.777344 C 60.945312 240.832031 60.910156 239.882812 60.910156 238.933594 C 60.910156 237.980469 60.945312 237.03125 61.011719 236.085938 C 61.082031 235.140625 61.183594 234.199219 61.316406 233.265625 C 61.449219 232.335938 61.617188 231.414062 61.820312 230.503906 C 62.019531 229.59375 62.25 228.699219 62.515625 227.820312 C 62.777344 226.941406 63.074219 226.082031 63.398438 225.246094 C 63.722656 224.40625 64.078125 223.59375 64.460938 222.800781 C 64.84375 222.011719 65.253906 221.246094 65.691406 220.511719 C 66.128906 219.777344 66.59375 219.074219 67.082031 218.402344 C 67.570312 217.730469 68.078125 217.089844 68.613281 216.488281 C 69.144531 215.886719 69.699219 215.320312 70.273438 214.789062 C 70.847656 214.261719 71.4375 213.773438 72.046875 213.324219 C 72.652344 212.878906 73.277344 212.472656 73.914062 212.109375 C 74.550781 211.742188 75.199219 211.425781 75.859375 211.148438 C 76.519531 210.871094 77.1875 210.640625 77.867188 210.457031 C 78.542969 210.269531 79.222656 210.128906 79.910156 210.039062 C 80.597656 209.945312 81.285156 209.898438 81.976562 209.898438 C 82.664062 209.898438 83.351562 209.945312 84.039062 210.039062 C 84.726562 210.128906 85.40625 210.269531 86.082031 210.457031 C 86.761719 210.640625 87.429688 210.871094 88.089844 211.148438 C 88.75 211.425781 89.398438 211.742188 90.035156 212.109375 C 90.671875 212.472656 91.296875 212.878906 91.902344 213.324219 C 92.511719 213.773438 93.101562 214.261719 93.675781 214.789062 C 94.25 215.320312 94.804688 215.886719 95.335938 216.488281 C 95.871094 217.089844 96.378906 217.730469 96.867188 218.402344 C 97.355469 219.074219 97.820312 219.777344 98.257812 220.511719 C 98.695312 221.246094 99.105469 222.011719 99.488281 222.800781 C 99.871094 223.59375 100.226562 224.40625 100.550781 225.246094 C 100.875 226.082031 101.171875 226.941406 101.433594 227.820312 C 101.699219 228.699219 101.929688 229.59375 102.128906 230.503906 C 102.332031 231.414062 102.5 232.335938 102.632812 233.265625 C 102.765625 234.199219 102.867188 235.140625 102.9375 236.085938 C 103.003906 237.03125 103.039062 237.980469 103.039062 238.933594 Z M 103.039062 238.933594 " fill-opacity="1" fill-rule="nonzero"/><path fill="#061f40" d="M 81.976562 269.28125 C 69.636719 269.28125 59.59375 255.667969 59.59375 238.933594 C 59.59375 222.195312 69.636719 208.585938 81.976562 208.585938 C 94.3125 208.585938 104.355469 222.199219 104.355469 238.933594 C 104.355469 255.664062 94.3125 269.28125 81.976562 269.28125 Z M 81.976562 211.21875 C 71.085938 211.21875 62.230469 223.652344 62.230469 238.933594 C 62.230469 254.210938 71.085938 266.648438 81.976562 266.648438 C 92.863281 266.648438 101.71875 254.214844 101.71875 238.933594 C 101.71875 223.648438 92.863281 211.21875 81.976562 211.21875 Z M 81.976562 211.21875 " fill-opacity="1" fill-rule="nonzero"/><path fill="#061f40" d="M 97.101562 218.738281 C 91.304688 221.960938 87.128906 228 86.035156 235.160156 L 96.140625 238.933594 L 86.035156 242.710938 C 87.144531 249.867188 91.34375 255.878906 97.101562 259.128906 C 100.789062 253.910156 103.039062 246.785156 103.039062 238.933594 C 103.039062 231.078125 100.773438 223.960938 97.101562 218.738281 Z M 97.101562 218.738281 " fill-opacity="1" fill-rule="nonzero"/><path fill="#d61a46" d="M 81.976562 258.695312 C 76.394531 258.707031 70.878906 258.105469 65.433594 256.890625 C 69.289062 263.636719 75.261719 267.957031 81.976562 267.957031 C 88.6875 267.957031 94.660156 263.625 98.515625 256.890625 C 93.070312 258.105469 87.554688 258.707031 81.976562 258.695312 Z M 81.976562 258.695312 " fill-opacity="1" fill-rule="nonzero"/><path fill="#061f40" d="M 81.976562 269.28125 C 75.003906 269.28125 68.554688 265.003906 64.289062 257.546875 L 62.804688 254.949219 L 65.722656 255.605469 C 71.074219 256.785156 76.492188 257.375 81.976562 257.375 C 87.457031 257.375 92.875 256.785156 98.226562 255.605469 L 101.144531 254.949219 L 99.660156 257.527344 C 95.394531 265.003906 88.949219 269.28125 81.976562 269.28125 Z M 68.234375 258.804688 C 71.921875 263.824219 76.800781 266.648438 81.976562 266.648438 C 87.148438 266.648438 92.039062 263.851562 95.726562 258.804688 C 86.566406 260.425781 77.40625 260.425781 68.246094 258.804688 Z M 68.234375 258.804688 " fill-opacity="1" fill-rule="nonzero"/><path fill="#ffffff" d="M 243.429688 243.390625 C 243.429688 244.339844 243.394531 245.289062 243.328125 246.234375 C 243.261719 247.179688 243.160156 248.121094 243.023438 249.054688 C 242.890625 249.984375 242.722656 250.90625 242.523438 251.816406 C 242.320312 252.726562 242.089844 253.621094 241.824219 254.5 C 241.5625 255.378906 241.265625 256.238281 240.941406 257.074219 C 240.617188 257.914062 240.261719 258.730469 239.878906 259.519531 C 239.496094 260.308594 239.085938 261.074219 238.648438 261.808594 C 238.210938 262.542969 237.746094 263.246094 237.261719 263.917969 C 236.773438 264.589844 236.261719 265.230469 235.726562 265.832031 C 235.195312 266.4375 234.640625 267 234.066406 267.53125 C 233.496094 268.058594 232.902344 268.546875 232.296875 268.996094 C 231.6875 269.441406 231.0625 269.847656 230.425781 270.210938 C 229.789062 270.578125 229.140625 270.898438 228.480469 271.171875 C 227.820312 271.449219 227.152344 271.679688 226.476562 271.863281 C 225.796875 272.050781 225.117188 272.191406 224.429688 272.28125 C 223.746094 272.375 223.054688 272.421875 222.367188 272.421875 C 221.675781 272.421875 220.988281 272.375 220.300781 272.28125 C 219.613281 272.191406 218.933594 272.050781 218.257812 271.863281 C 217.582031 271.679688 216.910156 271.449219 216.25 271.171875 C 215.589844 270.898438 214.941406 270.578125 214.304688 270.210938 C 213.667969 269.847656 213.046875 269.441406 212.4375 268.996094 C 211.828125 268.546875 211.238281 268.058594 210.664062 267.53125 C 210.089844 267 209.539062 266.4375 209.003906 265.832031 C 208.472656 265.230469 207.960938 264.589844 207.472656 263.917969 C 206.984375 263.246094 206.523438 262.542969 206.085938 261.808594 C 205.648438 261.074219 205.234375 260.308594 204.851562 259.519531 C 204.46875 258.730469 204.117188 257.914062 203.789062 257.074219 C 203.464844 256.238281 203.171875 255.378906 202.90625 254.5 C 202.640625 253.621094 202.410156 252.726562 202.210938 251.816406 C 202.011719 250.90625 201.84375 249.984375 201.707031 249.054688 C 201.574219 248.121094 201.472656 247.179688 201.40625 246.234375 C 201.335938 245.289062 201.304688 244.339844 201.304688 243.390625 C 201.304688 242.4375 201.335938 241.488281 201.40625 240.542969 C 201.472656 239.597656 201.574219 238.65625 201.707031 237.722656 C 201.84375 236.792969 202.011719 235.871094 202.210938 234.960938 C 202.410156 234.050781 202.640625 233.15625 202.90625 232.277344 C 203.171875 231.398438 203.464844 230.539062 203.789062 229.703125 C 204.117188 228.863281 204.46875 228.050781 204.851562 227.257812 C 205.234375 226.46875 205.648438 225.703125 206.085938 224.96875 C 206.523438 224.234375 206.984375 223.53125 207.472656 222.859375 C 207.960938 222.1875 208.472656 221.546875 209.003906 220.945312 C 209.539062 220.34375 210.089844 219.777344 210.664062 219.246094 C 211.238281 218.71875 211.828125 218.230469 212.4375 217.78125 C 213.046875 217.335938 213.667969 216.929688 214.304688 216.566406 C 214.941406 216.199219 215.589844 215.882812 216.25 215.605469 C 216.910156 215.328125 217.582031 215.097656 218.257812 214.914062 C 218.933594 214.726562 219.613281 214.585938 220.300781 214.496094 C 220.988281 214.402344 221.675781 214.355469 222.367188 214.355469 C 223.054688 214.355469 223.746094 214.402344 224.429688 214.496094 C 225.117188 214.585938 225.796875 214.726562 226.476562 214.914062 C 227.152344 215.097656 227.820312 215.328125 228.480469 215.605469 C 229.140625 215.882812 229.789062 216.199219 230.425781 216.566406 C 231.0625 216.929688 231.6875 217.335938 232.296875 217.78125 C 232.902344 218.230469 233.496094 218.71875 234.066406 219.246094 C 234.640625 219.777344 235.195312 220.34375 235.726562 220.945312 C 236.261719 221.546875 236.773438 222.1875 237.261719 222.859375 C 237.746094 223.53125 238.210938 224.234375 238.648438 224.96875 C 239.085938 225.703125 239.496094 226.46875 239.878906 227.257812 C 240.261719 228.050781 240.617188 228.863281 240.941406 229.703125 C 241.265625 230.539062 241.5625 231.398438 241.824219 232.277344 C 242.089844 233.15625 242.320312 234.050781 242.523438 234.960938 C 242.722656 235.871094 242.890625 236.792969 243.023438 237.722656 C 243.160156 238.65625 243.261719 239.597656 243.328125 240.542969 C 243.394531 241.488281 243.429688 242.4375 243.429688 243.390625 Z M 243.429688 243.390625 " fill-opacity="1" fill-rule="nonzero"/><path fill="#061f40" d="M 222.367188 273.738281 C 210.023438 273.738281 199.984375 260.125 199.984375 243.390625 C 199.984375 226.652344 210.023438 213.039062 222.367188 213.039062 C 234.710938 213.039062 244.746094 226.65625 244.746094 243.390625 C 244.746094 260.121094 234.703125 273.738281 222.367188 273.738281 Z M 222.367188 215.671875 C 211.476562 215.671875 202.621094 228.105469 202.621094 243.390625 C 202.621094 258.671875 211.476562 271.105469 222.367188 271.105469 C 233.257812 271.105469 242.113281 258.671875 242.113281 243.390625 C 242.113281 228.105469 233.230469 215.671875 222.367188 215.671875 Z M 222.367188 215.671875 " fill-opacity="1" fill-rule="nonzero"/><path fill="#061f40" d="M 207.234375 223.191406 C 213.03125 226.417969 217.207031 232.453125 218.300781 239.617188 L 208.195312 243.390625 L 218.300781 247.160156 C 217.1875 254.324219 212.988281 260.332031 207.234375 263.585938 C 203.546875 258.367188 201.304688 251.242188 201.304688 243.390625 C 201.304688 235.535156 203.570312 228.417969 207.234375 223.191406 Z M 207.234375 223.191406 " fill-opacity="1" fill-rule="nonzero"/><path fill="#d61a46" d="M 222.367188 263.144531 C 227.945312 263.15625 233.460938 262.558594 238.910156 261.347656 C 235.050781 268.085938 229.078125 272.414062 222.367188 272.414062 C 215.652344 272.414062 209.679688 268.066406 205.835938 261.347656 C 211.277344 262.558594 216.789062 263.15625 222.367188 263.144531 Z M 222.367188 263.144531 " fill-opacity="1" fill-rule="nonzero"/><path fill="#061f40" d="M 222.367188 273.738281 C 215.390625 273.738281 208.949219 269.460938 204.675781 262.003906 L 203.199219 259.40625 L 206.117188 260.0625 C 211.472656 261.238281 216.890625 261.828125 222.375 261.828125 C 227.855469 261.828125 233.273438 261.238281 238.628906 260.0625 L 241.546875 259.40625 L 240.078125 262.003906 C 235.785156 269.460938 229.335938 273.738281 222.367188 273.738281 Z M 208.625 263.261719 C 212.3125 268.28125 217.1875 271.105469 222.367188 271.105469 C 227.546875 271.105469 232.429688 268.28125 236.105469 263.261719 C 226.945312 264.875 217.785156 264.875 208.625 263.261719 Z M 208.625 263.261719 " fill-opacity="1" fill-rule="nonzero"/><path fill="#ffffff" d="M 270.425781 243.390625 C 270.425781 244.339844 270.390625 245.289062 270.324219 246.234375 C 270.253906 247.179688 270.152344 248.121094 270.019531 249.054688 C 269.886719 249.984375 269.71875 250.90625 269.515625 251.816406 C 269.316406 252.726562 269.085938 253.621094 268.820312 254.5 C 268.558594 255.378906 268.261719 256.238281 267.9375 257.074219 C 267.613281 257.914062 267.257812 258.730469 266.875 259.519531 C 266.492188 260.308594 266.082031 261.074219 265.644531 261.808594 C 265.207031 262.542969 264.742188 263.246094 264.253906 263.917969 C 263.765625 264.589844 263.257812 265.230469 262.722656 265.832031 C 262.191406 266.4375 261.636719 267 261.0625 267.53125 C 260.488281 268.058594 259.898438 268.546875 259.289062 268.996094 C 258.683594 269.441406 258.058594 269.847656 257.421875 270.210938 C 256.785156 270.578125 256.136719 270.898438 255.476562 271.171875 C 254.816406 271.449219 254.148438 271.679688 253.46875 271.863281 C 252.792969 272.050781 252.113281 272.191406 251.425781 272.28125 C 250.738281 272.375 250.050781 272.421875 249.359375 272.421875 C 248.671875 272.421875 247.984375 272.375 247.296875 272.28125 C 246.609375 272.191406 245.929688 272.050781 245.253906 271.863281 C 244.574219 271.679688 243.90625 271.449219 243.246094 271.171875 C 242.585938 270.898438 241.9375 270.578125 241.300781 270.210938 C 240.664062 269.847656 240.039062 269.441406 239.433594 268.996094 C 238.824219 268.546875 238.234375 268.058594 237.660156 267.53125 C 237.085938 267 236.53125 266.4375 236 265.832031 C 235.464844 265.230469 234.957031 264.589844 234.46875 263.917969 C 233.980469 263.246094 233.515625 262.542969 233.078125 261.808594 C 232.640625 261.074219 232.230469 260.308594 231.847656 259.519531 C 231.464844 258.730469 231.109375 257.914062 230.785156 257.074219 C 230.460938 256.238281 230.164062 255.378906 229.902344 254.5 C 229.636719 253.621094 229.40625 252.726562 229.207031 251.816406 C 229.003906 250.90625 228.835938 249.984375 228.703125 249.054688 C 228.570312 248.121094 228.46875 247.179688 228.398438 246.234375 C 228.332031 245.289062 228.296875 244.339844 228.296875 243.390625 C 228.296875 242.4375 228.332031 241.488281 228.398438 240.542969 C 228.46875 239.597656 228.570312 238.65625 228.703125 237.722656 C 228.835938 236.792969 229.003906 235.871094 229.207031 234.960938 C 229.40625 234.050781 229.636719 233.15625 229.902344 232.277344 C 230.164062 231.398438 230.460938 230.539062 230.785156 229.703125 C 231.109375 228.863281 231.464844 228.050781 231.847656 227.257812 C 232.230469 226.46875 232.640625 225.703125 233.078125 224.96875 C 233.515625 224.234375 233.980469 223.53125 234.46875 222.859375 C 234.957031 222.1875 235.464844 221.546875 236 220.945312 C 236.53125 220.34375 237.085938 219.777344 237.660156 219.246094 C 238.234375 218.71875 238.824219 218.230469 239.433594 217.78125 C 240.039062 217.335938 240.664062 216.929688 241.300781 216.566406 C 241.9375 216.199219 242.585938 215.882812 243.246094 215.605469 C 243.90625 215.328125 244.574219 215.097656 245.253906 214.914062 C 245.929688 214.726562 246.609375 214.585938 247.296875 214.496094 C 247.984375 214.402344 248.671875 214.355469 249.359375 214.355469 C 250.050781 214.355469 250.738281 214.402344 251.425781 214.496094 C 252.113281 214.585938 252.792969 214.726562 253.46875 214.914062 C 254.148438 215.097656 254.816406 215.328125 255.476562 215.605469 C 256.136719 215.882812 256.785156 216.199219 257.421875 216.566406 C 258.058594 216.929688 258.683594 217.335938 259.289062 217.78125 C 259.898438 218.230469 260.488281 218.71875 261.0625 219.246094 C 261.636719 219.777344 262.191406 220.34375 262.722656 220.945312 C 263.257812 221.546875 263.765625 222.1875 264.253906 222.859375 C 264.742188 223.53125 265.207031 224.234375 265.644531 224.96875 C 266.082031 225.703125 266.492188 226.46875 266.875 227.257812 C 267.257812 228.050781 267.613281 228.863281 267.9375 229.703125 C 268.261719 230.539062 268.558594 231.398438 268.820312 232.277344 C 269.085938 233.15625 269.316406 234.050781 269.515625 234.960938 C 269.71875 235.871094 269.886719 236.792969 270.019531 237.722656 C 270.152344 238.65625 270.253906 239.597656 270.324219 240.542969 C 270.390625 241.488281 270.425781 242.4375 270.425781 243.390625 Z M 270.425781 243.390625 " fill-opacity="1" fill-rule="nonzero"/><path fill="#061f40" d="M 249.359375 273.738281 C 237.023438 273.738281 226.980469 260.125 226.980469 243.390625 C 226.980469 226.652344 237.023438 213.039062 249.359375 213.039062 C 261.699219 213.039062 271.742188 226.65625 271.742188 243.390625 C 271.742188 260.121094 261.707031 273.738281 249.359375 273.738281 Z M 249.359375 215.671875 C 238.476562 215.671875 229.617188 228.105469 229.617188 243.390625 C 229.617188 258.671875 238.476562 271.105469 249.359375 271.105469 C 260.246094 271.105469 269.105469 258.671875 269.105469 243.390625 C 269.105469 228.105469 260.25 215.671875 249.359375 215.671875 Z M 249.359375 215.671875 " fill-opacity="1" fill-rule="nonzero"/><path fill="#061f40" d="M 234.234375 223.191406 C 240.03125 226.417969 244.207031 232.453125 245.300781 239.617188 L 235.1875 243.390625 L 245.347656 247.160156 C 244.234375 254.324219 240.035156 260.332031 234.285156 263.585938 C 230.59375 258.367188 228.351562 251.242188 228.351562 243.390625 C 228.351562 235.535156 230.59375 228.417969 234.234375 223.191406 Z M 234.234375 223.191406 " fill-opacity="1" fill-rule="nonzero"/><path fill="#d61a46" d="M 249.359375 263.144531 C 254.9375 263.15625 260.449219 262.558594 265.894531 261.347656 C 262.03125 268.085938 256.058594 272.414062 249.34375 272.414062 C 242.632812 272.414062 236.660156 268.078125 232.804688 261.347656 C 238.257812 262.558594 243.777344 263.15625 249.359375 263.144531 Z M 249.359375 263.144531 " fill-opacity="1" fill-rule="nonzero"/><path fill="#061f40" d="M 249.359375 273.738281 C 242.390625 273.738281 235.941406 269.460938 231.675781 262.003906 L 230.191406 259.40625 L 233.109375 260.0625 C 238.464844 261.238281 243.882812 261.828125 249.363281 261.828125 C 254.847656 261.828125 260.265625 261.238281 265.621094 260.0625 L 268.539062 259.40625 L 267.050781 262.003906 C 262.78125 269.460938 256.335938 273.738281 249.359375 273.738281 Z M 235.621094 263.261719 C 239.308594 268.28125 244.1875 271.105469 249.359375 271.105469 C 254.535156 271.105469 259.429688 268.28125 263.101562 263.261719 C 253.941406 264.875 244.78125 264.875 235.621094 263.261719 Z M 235.621094 263.261719 " fill-opacity="1" fill-rule="nonzero"/><path fill="#061f40" d="M 66.929688 280.730469 C 66.929688 281.355469 66.894531 281.972656 66.820312 282.582031 C 66.75 283.191406 66.644531 283.785156 66.503906 284.363281 C 66.363281 284.9375 66.195312 285.484375 65.992188 286.003906 C 65.789062 286.519531 65.558594 287 65.296875 287.441406 C 65.039062 287.878906 64.757812 288.273438 64.457031 288.621094 C 64.152344 288.964844 63.832031 289.257812 63.492188 289.496094 C 63.15625 289.734375 62.808594 289.914062 62.449219 290.035156 C 62.09375 290.160156 61.730469 290.21875 61.363281 290.21875 C 61 290.21875 60.636719 290.160156 60.28125 290.035156 C 59.921875 289.914062 59.574219 289.734375 59.234375 289.496094 C 58.898438 289.257812 58.578125 288.964844 58.273438 288.621094 C 57.96875 288.273438 57.6875 287.878906 57.429688 287.441406 C 57.171875 287 56.941406 286.519531 56.738281 286.003906 C 56.535156 285.484375 56.363281 284.9375 56.226562 284.363281 C 56.085938 283.785156 55.980469 283.191406 55.910156 282.582031 C 55.835938 281.972656 55.800781 281.355469 55.800781 280.730469 C 55.800781 280.109375 55.835938 279.492188 55.910156 278.878906 C 55.980469 278.269531 56.085938 277.675781 56.226562 277.101562 C 56.363281 276.523438 56.535156 275.976562 56.738281 275.460938 C 56.941406 274.941406 57.171875 274.460938 57.429688 274.023438 C 57.6875 273.582031 57.96875 273.1875 58.273438 272.839844 C 58.578125 272.496094 58.898438 272.203125 59.234375 271.964844 C 59.574219 271.726562 59.921875 271.546875 60.28125 271.425781 C 60.636719 271.304688 61 271.242188 61.363281 271.242188 C 61.730469 271.242188 62.09375 271.304688 62.449219 271.425781 C 62.808594 271.546875 63.15625 271.726562 63.492188 271.964844 C 63.832031 272.203125 64.152344 272.496094 64.457031 272.839844 C 64.757812 273.1875 65.039062 273.582031 65.296875 274.023438 C 65.558594 274.460938 65.789062 274.941406 65.992188 275.460938 C 66.195312 275.976562 66.363281 276.523438 66.503906 277.101562 C 66.644531 277.675781 66.75 278.269531 66.820312 278.878906 C 66.894531 279.492188 66.929688 280.109375 66.929688 280.730469 Z M 66.929688 280.730469 " fill-opacity="1" fill-rule="nonzero"/><path fill="#d61a46" d="M 222.625 290.367188 C 222.625 290.367188 250.746094 308.140625 278.875 278.65625 " fill-opacity="1" fill-rule="nonzero"/><path fill="#061f40" d="M 243.160156 296.996094 C 242.105469 296.996094 241.054688 296.953125 240.109375 296.882812 C 229.355469 296.109375 222.199219 291.667969 221.921875 291.476562 C 221.765625 291.390625 221.632812 291.273438 221.523438 291.128906 C 221.414062 290.988281 221.335938 290.828125 221.292969 290.652344 C 221.25 290.476562 221.242188 290.300781 221.269531 290.125 C 221.300781 289.945312 221.363281 289.78125 221.457031 289.628906 C 221.554688 289.476562 221.675781 289.347656 221.824219 289.246094 C 221.976562 289.144531 222.136719 289.074219 222.3125 289.039062 C 222.492188 289.003906 222.667969 289.003906 222.84375 289.042969 C 223.019531 289.082031 223.183594 289.152344 223.332031 289.253906 C 228.648438 292.214844 234.347656 293.886719 240.421875 294.265625 C 253.960938 295.199219 266.578125 289.640625 277.921875 277.75 C 278.042969 277.621094 278.183594 277.523438 278.339844 277.453125 C 278.5 277.382812 278.667969 277.34375 278.84375 277.339844 C 279.019531 277.335938 279.1875 277.363281 279.351562 277.425781 C 279.511719 277.492188 279.660156 277.582031 279.785156 277.703125 C 279.910156 277.824219 280.011719 277.964844 280.082031 278.125 C 280.152344 278.285156 280.1875 278.449219 280.191406 278.625 C 280.195312 278.800781 280.167969 278.96875 280.105469 279.132812 C 280.042969 279.296875 279.949219 279.441406 279.828125 279.566406 C 266.421875 293.636719 252.9375 296.996094 243.160156 296.996094 Z M 243.160156 296.996094 " fill-opacity="1" fill-rule="nonzero"/></svg>